<svg version="1" xmlns="http://www.w3.org/2000/svg" width="666.667" height="666.667" viewBox="0 0 500.000000 500.000000"><path d="M23.7 1.1c-8.5 2-16.8 8.4-21 16.4l-2.2 4-.3 151.2L0 323.8l8 7.4c24.9 22.6 50.1 32.7 89.8 35.9 47.8 3.9 83-11.7 110.5-48.8 13.1-17.7 19.8-30.1 37.9-69.7 6-13.3 13.9-29.7 17.4-36.6 23.8-45.7 53.6-75 97.9-96.5C408 93.1 452 86.9 497.8 96.6l2.2.4V60.3c0-36.6 0-36.8-2.4-41.9-3.1-6.6-8.5-12-15.5-15.3L476.5.5 252 .3C123.2.3 25.9.6 23.7 1.1z"/><path d="M370.6 134.1c-42.3 5.8-70 28-97 77.6-3.6 6.5-11.4 22.6-17.4 35.9-24.5 53.6-36 72.8-57.2 94.8-30.5 31.8-77.2 55.6-124.5 63.6-20.5 3.5-49.9 2.8-71.3-1.6l-3.3-.7.3 36.9c.3 36 .4 37 2.6 41.5 3.1 6.3 8.6 11.7 15.2 14.8l5.5 2.6 224.5.3c203.8.2 224.9.1 230-1.4 9.4-2.7 16.7-9.4 20.1-18.4 1.8-4.9 1.9-10.1 1.9-153.9V177.2l-7.7-7.2c-26-24.3-56.2-35.5-98.3-36.5-9.1-.2-19.6 0-23.4.6z"/></svg>