<?xml version="1.0" encoding="UTF-8"?>
<svg width="36px" height="35px" viewBox="0 0 36 35" version="1.1" xmlns="http://www.w3.org/2000/svg" xmlns:xlink="http://www.w3.org/1999/xlink">
    <!-- Generator: sketchtool 48.2 (47327) - http://www.bohemiancoding.com/sketch -->
    <title>35C53312-48A0-4FA6-B6B0-F54FC723F431</title>
    <desc>Created with sketchtool.</desc>
    <defs></defs>
    <g id="Ui" stroke="none" stroke-width="1" fill="none" fill-rule="evenodd" transform="translate(-864.000000, -8278.000000)">
        <g id="Pak" transform="translate(141.000000, 8158.000000)" stroke="#95999F">
            <g id="icon-copy-7" transform="translate(723.000000, 117.000000)">
                <g id="icon-4" transform="translate(0.000000, 3.000000)">
                    <rect id="Rectangle-6" x="0.5" y="3.5" width="35" height="3" rx="1"></rect>
                    <path d="M3.89473684,0.5 C3.06630972,0.5 2.39473684,1.17157288 2.39473684,2 L2.39473684,3 C2.39473684,3.27614237 2.61859447,3.5 2.89473684,3.5 L33.1052632,3.5 C33.3814055,3.5 33.6052632,3.27614237 33.6052632,3 L33.6052632,2 C33.6052632,1.17157288 32.9336903,0.5 32.1052632,0.5 L3.89473684,0.5 Z" id="Rectangle-6-Copy-2"></path>
                    <path d="M33.5496697,6.5 L2.45032365,6.5 L5.27414638,33.2376757 C5.37994254,33.9802919 5.90434851,34.5 6.48624171,34.5 L29.5137583,34.5 C30.0956515,34.5 30.6200575,33.9802919 30.7236216,33.2556757 L33.5496697,6.5 Z" id="Rectangle-6-Copy"></path>
                </g>
            </g>
        </g>
    </g>
</svg>