<?xml version="1.0" encoding="UTF-8"?>
<svg width="35px" height="38px" viewBox="0 0 35 38" version="1.1" xmlns="http://www.w3.org/2000/svg" xmlns:xlink="http://www.w3.org/1999/xlink">
    <!-- Generator: sketchtool 48.2 (47327) - http://www.bohemiancoding.com/sketch -->
    <title>673EA384-7FDE-4DF3-AE99-B70A4541F2A3</title>
    <desc>Created with sketchtool.</desc>
    <defs></defs>
    <g id="Ui" stroke="none" stroke-width="1" fill="none" fill-rule="evenodd" transform="translate(-143.000000, -8344.000000)" stroke-linecap="round" stroke-linejoin="round">
        <g id="Pak" transform="translate(141.000000, 8158.000000)" stroke="#95999F">
            <g id="icon-copy-2" transform="translate(3.000000, 185.000000)">
                <g id="icon-6" transform="translate(0.000000, 2.000000)">
                    <path d="M0,0 C2.91420016,0.631578947 8.03090118,0.947368421 15.3501031,0.947368421 C22.6693049,0.947368421 28.4268439,0.631578947 32.6227199,0 C32.0701166,1.7005768 31.8014381,2.97453484 31.8166843,3.82187414 C31.8395535,5.09288307 33.1043367,10.5748612 32.9930682,19.4407124 C32.8817997,28.3065635 31.305301,29.7699424 31.8166843,32.7549856 C31.9285584,33.4080169 32.197237,34.4896884 32.6227199,36 C29.2584294,35.3684211 23.8916966,35.0526316 16.5225215,35.0526316 C9.15334642,35.0526316 3.64583925,35.3684211 0,36 C1.08049553,33.7037418 1.43092317,31.6270559 1.05128291,29.7699424 C0.832848274,28.7014101 0.03459799,25.8053571 0.115975706,19.1870468 C0.165644184,15.1475945 1.1450497,10.0744379 1.03073972,3.96757709 C1.01480042,3.11604122 0.671220518,1.79351552 0,0 Z" id="Rectangle-7"></path>
                    <path d="M0,0 C3.32196445,3.18399517 4.37242018,7.44091249 3.15136719,12.770752 C2.08972168,17.4047852 3.56155509,22.7294821 3.859375,26.3728027 C4.36376953,32.5432129 1.18456183,34.1445312 0.265869141,35.6008301" id="Path-2"></path>
                    <path d="M28.9921237,0.268676758 C31.957038,3.27355409 32.8289687,7.44091249 31.6079157,12.770752 C30.5462702,17.4047852 32.0181036,22.7294821 32.3159235,26.3728027 C32.8203181,32.5432129 30.0967295,34.4007568 29.1780368,35.8570557" id="Path-2-Copy" transform="translate(30.684905, 18.062866) scale(-1, 1) translate(-30.684905, -18.062866) "></path>
                </g>
            </g>
        </g>
    </g>
</svg>