<?xml version="1.0" encoding="UTF-8"?>
<svg width="27px" height="39px" viewBox="0 0 27 39" version="1.1" xmlns="http://www.w3.org/2000/svg" xmlns:xlink="http://www.w3.org/1999/xlink">
    <!-- Generator: sketchtool 48.2 (47327) - http://www.bohemiancoding.com/sketch -->
    <title>EDAC435F-6725-412B-B1C8-7E01A071DFAE</title>
    <desc>Created with sketchtool.</desc>
    <defs></defs>
    <g id="Ui" stroke="none" stroke-width="1" fill="none" fill-rule="evenodd" transform="translate(-143.000000, -8206.000000)" stroke-linecap="round" stroke-linejoin="round">
        <g id="Pak" transform="translate(141.000000, 8158.000000)" stroke="#95999F">
            <g id="icon" transform="translate(3.000000, 48.000000)">
                <g transform="translate(12.500000, 19.500000) scale(-1, 1) translate(-12.500000, -19.500000) translate(0.000000, 1.000000)">
                    <polygon id="Stroke-1" points="0 37 18 37 18 14 0 14"></polygon>
                    <polygon id="Stroke-3" points="18 14 0 14 3 3 21 3"></polygon>
                    <polygon id="Stroke-4" points="18 37 25 37 25 14 18 14"></polygon>
                    <path d="M3,3 L21,3 L21,2 C21,0.8954305 20.1045695,-2.02906125e-16 19,0 L5,0 C3.8954305,2.02906125e-16 3,0.8954305 3,2 L3,3 Z" id="Stroke-5"></path>
                    <polyline id="Stroke-6" points="21.0524902 2.99487305 25 14 19.4465332 10"></polyline>
                    <path d="M14,8.5 C14,10.4331606 12.4331606,12 10.5,12 C8.56683938,12 7,10.4331606 7,8.5 C7,6.56683938 8.56683938,5 10.5,5 C12.4331606,5 14,6.56683938 14,8.5 Z" id="Stroke-7-Copy"></path>
                </g>
            </g>
        </g>
    </g>
</svg>