<?xml version="1.0" encoding="UTF-8"?>
<svg width="35px" height="39px" viewBox="0 0 35 39" version="1.1" xmlns="http://www.w3.org/2000/svg" xmlns:xlink="http://www.w3.org/1999/xlink">
    <!-- Generator: sketchtool 48.2 (47327) - http://www.bohemiancoding.com/sketch -->
    <title>2EF4FA14-0100-4768-8E3F-07A892C7C896</title>
    <desc>Created with sketchtool.</desc>
    <defs></defs>
    <g id="Ui" stroke="none" stroke-width="1" fill="none" fill-rule="evenodd" transform="translate(-569.000000, -8206.000000)">
        <g id="Pak" transform="translate(141.000000, 8158.000000)" stroke="#95999F">
            <g id="icon-copy-4" transform="translate(429.000000, 48.000000)">
                <g id="icon-2" transform="translate(0.000000, 1.000000)">
                    <path d="M28.1132813,13.5175781 L26.7550644,32.578448 C26.7088513,33.226999 26.3502519,33.8126073 25.7935873,34.1485813 C22.9126527,35.887365 19.3140672,36.7567568 14.9978308,36.7567568 C10.6674184,36.7567568 7.05937857,35.8816448 4.17371142,34.1314208 L4.17370319,34.1314343 C3.63348778,33.8037812 3.27986,33.2401329 3.21990317,32.6111699 L0.945945946,8.75675676" id="Rectangle-5" stroke-linecap="round" stroke-linejoin="round"></path>
                    <ellipse id="Oval-Copy-3" cx="15.1351351" cy="6.32432432" rx="15.1351351" ry="6.32432432"></ellipse>
                    <path d="M29.8164093,7.9016231 C28.6870569,4.55742072 22.4835116,2 15,2 C7.69477017,2 1.60924712,4.43701989 0.272893601,7.66397706" id="Oval-Copy-4"></path>
                    <path d="M24.8609414,9.44297285 C25.4794828,11.8220202 28.0539278,13.3549926 30.4555607,13.3448651 C32.8571937,13.3347376 33.6110046,11.4997013 33.308695,10.4082058 C33.0193643,9.47187074 32.3421966,8.60422019 31.2771918,7.80525416" id="Oval-Copy" transform="translate(29.116450, 10.575085) rotate(-22.000000) translate(-29.116450, -10.575085) "></path>
                </g>
            </g>
        </g>
    </g>
</svg>