<?xml version="1.0" encoding="UTF-8"?>
<svg width="37px" height="33px" viewBox="0 0 37 33" version="1.1" xmlns="http://www.w3.org/2000/svg" xmlns:xlink="http://www.w3.org/1999/xlink">
    <!-- Generator: sketchtool 48.2 (47327) - http://www.bohemiancoding.com/sketch -->
    <title>E8B75291-5404-464D-97DB-F1E64F73FC74</title>
    <desc>Created with sketchtool.</desc>
    <defs></defs>
    <g id="Ui" stroke="none" stroke-width="1" fill="none" fill-rule="evenodd" transform="translate(-863.000000, -8210.000000)">
        <g id="Pak" transform="translate(141.000000, 8158.000000)" stroke="#95999F">
            <g id="icon-copy-6" transform="translate(723.000000, 48.000000)">
                <g id="icon-3" transform="translate(0.000000, 4.000000)">
                    <path d="M27.6958008,14.9370117 L26.4996716,25.3424503 C26.3413995,26.7192982 25.6187518,27.9686893 24.504205,28.7924281 C21.8303126,30.7686472 18.5881595,31.7567568 14.7777458,31.7567568 C10.9402794,31.7567568 7.67917125,30.7545669 4.99442131,28.7501872 L4.99442654,28.7501802 C3.91542436,27.9446191 3.20694899,26.7379019 3.02933816,25.4031253 L0.947368421,9.75675676" id="Rectangle-5" stroke-linecap="round" stroke-linejoin="round"></path>
                    <ellipse id="Oval-Copy-3" cx="15.5" cy="7.5" rx="15.5" ry="6.5"></ellipse>
                    <ellipse id="Oval-Copy-3" cx="15.5" cy="7.5" rx="13.5" ry="4.5"></ellipse>
                    <path d="M12.4560161,9.68981446 C12.3437072,9.96778852 25.7743061,18.7579409 31.9528024,15.779651 C36.3914392,13.6618839 35.2972488,9.81124457 28.6702312,4.22773297" id="Oval-Copy" transform="translate(23.539373, 10.311240) rotate(-22.000000) translate(-23.539373, -10.311240) "></path>
                </g>
            </g>
        </g>
    </g>
</svg>