<?xml version="1.0" encoding="UTF-8"?>
<svg width="36px" height="34px" viewBox="0 0 36 34" version="1.1" xmlns="http://www.w3.org/2000/svg" xmlns:xlink="http://www.w3.org/1999/xlink">
    <!-- Generator: sketchtool 48.2 (47327) - http://www.bohemiancoding.com/sketch -->
    <title>33A5AA94-D072-4206-8E08-123C448D147D</title>
    <desc>Created with sketchtool.</desc>
    <defs></defs>
    <g id="Ui" stroke="none" stroke-width="1" fill="none" fill-rule="evenodd" transform="translate(-141.000000, -8277.000000)">
        <g id="Pak" transform="translate(141.000000, 8158.000000)" stroke="#95999F">
            <g id="icon-copy" transform="translate(0.000000, 116.000000)">
                <g id="icon-4" transform="translate(0.000000, 3.000000)">
                    <rect id="Rectangle-6" x="0.5" y="3.5" width="35" height="3" rx="1"></rect>
                    <path d="M3.89473684,0.5 C3.06630972,0.5 2.39473684,1.17157288 2.39473684,2 L2.39473684,3 C2.39473684,3.27614237 2.61859447,3.5 2.89473684,3.5 L33.1052632,3.5 C33.3814055,3.5 33.6052632,3.27614237 33.6052632,3 L33.6052632,2 C33.6052632,1.17157288 32.9336903,0.5 32.1052632,0.5 L3.89473684,0.5 Z" id="Rectangle-6-Copy-2"></path>
                    <path d="M33.5289503,6.5 L2.47104932,6.5 L5.79281313,29.8073464 C5.9066809,30.6063061 6.39923175,31.3011594 7.11541099,31.6731676 C9.44730266,32.8844288 13.1213949,33.5 18.1245117,33.5 C23.0848932,33.5 26.6834673,32.8947101 28.9048529,31.7061784 C29.6069393,31.3305336 30.0880874,30.642905 30.2004356,29.8546076 L33.5289503,6.5 Z" id="Rectangle-6-Copy"></path>
                    <path d="M35.5027466,5 C35.5027466,14.9411255 27.9411255,23 18,23 C8.0588745,23 0.498840332,14.9411255 0.498840332,5" id="Rectangle-8"></path>
                </g>
            </g>
        </g>
    </g>
</svg>