<svg xmlns="http://www.w3.org/2000/svg" xmlns:xlink="http://www.w3.org/1999/xlink" width="294" height="24" viewBox="0 0 294 24"><defs><path id="a" d="M.0000514.41427273h22.7156119V17.0958958H.0000514z"/><path id="c" d="M0 .27945253h22.7144811V16.9615385H0z"/></defs><g fill="none" fill-rule="evenodd"><g transform="translate(0 .099919)"><mask id="b" fill="#fff"><use xlink:href="#a"/></mask><path fill="#0055B8" d="M3.70846049 16.9933028c2.2856958.332035 3.93918881-.1372343 5.20205245-1.4756538 1.0546993-1.1533847 1.64578326-2.4702168 2.25639856-3.8317658.6054756-1.3492133 1.2243147-2.72515383 2.3345245-3.9463846.0066818-.00873776.0149056-.01696154.0231294-.0256993.7863986-.85681468 1.8184825-1.63755944 3.2653531-2.27695804 2.3376084-1.03413986 4.2198252-1.01974825 5.9257448-.66458392V1.7788028c0-.7535035-.6116434-1.36463287-1.3656609-1.36463287H1.36571224c-.75401748 0-1.36566084.61112937-1.36566084 1.36463287V15.075107c.86401049.9056433 1.90431818 1.6565769 3.70840909 1.9181958" mask="url(#b)"/></g><g transform="translate(0 6.267751)"><mask id="d" fill="#fff"><use xlink:href="#c"/></mask><path fill="#F1D09F" d="M19.006072.3820972c-2.2851818-.33203496-3.9386748.13672028-5.2015384 1.47565385-1.0541853 1.15492657-1.6468112 2.47175874-2.2569126 3.83227972-.6044476 1.34921329-1.2232867 2.72515385-2.33503848 3.9468986-.00565385.00668182-.01182168.01387762-.0185035.0221014-.78691259.85835663-1.82105245 1.63858743-3.26895105 2.27901403-1.46126224.6465944-2.74365734.8830279-3.91708741.8830279-.70416084 0-1.36823077-.0842937-2.00814336-.218958v2.9949965c0 .7535035.61112937 1.3646329 1.36566084 1.3646329H21.3488203c.7545314 0 1.3656608-.6111294 1.3656608-1.3646329V2.30132098C21.8504706 1.39413566 20.8106769.64371608 19.006072.3820972" mask="url(#d)"/></g><path fill="#0055B8" d="M43.6640371 2.45438601c4.0203986 0 6.3446433 2.18701049 7.6301223 4.45677273l-3.3367972 1.64167133c-.7653251-1.47668182-2.4059685-2.65268182-4.2933251-2.65268182-3.309042 0-5.7155245 2.5432028-5.7155245 5.98896505 0 3.4452482 2.4064825 5.988965 5.7155245 5.988965 1.8873566 0 3.528-1.1482447 4.2933251-2.6526818l3.3367972 1.6139161c-1.3127202 2.2697622-3.6097237 4.484528-7.6301223 4.484528-5.4693252 0-9.7086819-3.8286819-9.7086819-9.4347273 0-5.60604547 4.2393567-9.43472729 9.7086819-9.43472729zM69.4791388 20.9957633V8.22423881L64.3377367 20.9957633h-1.6956398L57.5006948 8.22423881V20.9957633h-3.8831644V2.75491364h5.4420839l4.4305595 11.02088806 4.4300454-11.02088806h5.4693252V20.9957633zM91.1910388 11.8891133c0-3.41852099-2.1875245-5.98896505-5.5515629-5.98896505-3.3640385 0-5.5243217 2.57044406-5.5243217 5.98896505 0 3.3912797 2.1602832 5.988965 5.5243217 5.988965 3.3640384 0 5.5515629-2.5976853 5.5515629-5.988965m-15.068528 0c0-5.49656645 4.0203986-9.43472729 9.5169651-9.43472729 5.5243217 0 9.5452342 3.93816084 9.5452342 9.43472729 0 5.4965664-4.0209125 9.4347273-9.5452342 9.4347273-5.4965665 0-9.5169651-3.9381609-9.5169651-9.4347273M149.986721 15.5261297c0-1.1482447-.820321-2.1330419-2.352-2.1330419h-5.004681v4.2388426h5.004681c1.477196 0 2.352-.7930804 2.352-2.1058007zm-.355164-7.43840557c0-1.14875875-.820836-1.9958077-2.133556-1.9958077h-4.867961v3.96488807h4.867961c1.31272 0 2.133556-.82083562 2.133556-1.96908037zM138.746875 20.9964829V2.75460524h9.599203c3.472489 0 5.249853 2.21527973 5.249853 4.64951749 0 2.29700349-1.421171 3.82816787-3.144566 4.18384617 1.942353.3006818 3.500758 2.1880384 3.500758 4.4850419 0 2.7349196-1.832874 4.9234721-5.305363 4.9234721h-9.899885zM156.876807 20.9957633V2.75491364h3.883678V14.5416409l8.44993-11.78672726h3.993157V20.9957633h-3.883678V8.77111993l-8.696643 12.22464337zM180.257671 7.86856049c0 2.37975521 1.230996 3.30904191 3.336283 3.30904191 1.31272 0 2.516475-.218444 3.473517-.6008496V2.75491364h3.883165V20.9962773h-3.883165v-7.0015175c-1.176.3551643-2.543202.6018776-3.938161.6018776-4.649003 0-6.782045-2.6804371-6.782045-6.72807691V2.75491364h3.910406v5.11364685zM194.558406 20.9957633V2.75491364h3.883679V14.5416409l8.44993-11.78672726h3.993157V20.9957633h-3.883678V8.77111993L198.30485 20.9957633zM102.023859 21.063558v-9.9769825c0-2.94976571 1.697182-4.71530767 4.58784-4.71530767h3.626685V21.063558h3.816346V2.75537622h-7.567416c-4.552374 0-8.3651224 2.95027972-8.3651224 7.84394058V21.063558h3.9016674zM126.642505 5.8763507c2.755993 0 4.722503 1.49055944 5.298167 4.00703496h-10.734598c.715469-2.1571993 2.788375-4.00703496 5.436431-4.00703496zm4.888521 9.666021c-1.019749 1.4658881-2.672214 2.4583951-4.742549 2.4583951-3.113214 0-5.260647-2.0060874-5.762298-4.5235909h14.782752v-1.617c0-5.29354198-3.883164-9.11913989-9.180818-9.11913989-5.258591 0-9.294923 4.11343007-9.294923 9.36842309 0 5.1907447 3.799384 9.2286189 9.451689 9.2286189 3.402073 0 5.969947-1.4170595 7.622412-3.6714021l-2.876265-2.1243042zM226.760864 20.9953007V10.8379091l-4.19978 10.1573916h-.629119l-4.181276-10.1573916v10.1573916h-1.53579V8.65501049h2.201916l3.829709 9.28772731 3.848214-9.28772731h2.201402V20.9953007zM241.34167 14.8344587c0-2.8860314-1.776335-5.01393353-4.532842-5.01393353-2.775525 0-4.532843 2.12790213-4.532843 5.01393353 0 2.867528 1.757318 5.0139336 4.532843 5.0139336 2.756507 0 4.532842-2.1464056 4.532842-5.0139336m-10.656472 0c0-3.6446748 2.460451-6.38319227 6.12363-6.38319227 3.644674 0 6.124143 2.73851747 6.124143 6.38319227 0 3.6446749-2.479469 6.3826784-6.124143 6.3826784-3.663179 0-6.12363-2.7380035-6.12363-6.3826784M243.803715 19.8483409c1.480279 0 2.312937-.8141538 2.831035-4.9954301l.758129-6.19764332h7.548913V20.9950437h-1.535277V10.0240122h-4.644377l-.610616 4.9399196c-.665612 5.4210105-2.145891 6.2531539-4.347807 6.2531539v-1.3687448zM268.163465 14.6069685c0-2.8860314-1.776336-5.01393353-4.532843-5.01393353-2.775524 0-4.532842 2.12790213-4.532842 5.01393353 0 2.867528 1.757318 5.0139336 4.532842 5.0139336 2.756507 0 4.532843-2.1464056 4.532843-5.0139336m-10.656472 0c0-3.6446748 2.460451-6.38319228 6.123629-6.38319228 3.644675 0 6.124144 2.73851748 6.124144 6.38319228 0 3.6446749-2.479469 6.3826784-6.124144 6.3826784-3.663178 0-6.123629-2.7380035-6.123629-6.3826784M292.320808 14.6069685c0-2.8860314-1.776336-5.01393353-4.532843-5.01393353-2.775524 0-4.532843 2.12790213-4.532843 5.01393353 0 2.867528 1.757319 5.0139336 4.532843 5.0139336 2.756507 0 4.532843-2.1464056 4.532843-5.0139336m-10.656472 0c0-3.6446748 2.460451-6.38319228 6.123629-6.38319228 3.644675 0 6.124143 2.73851748 6.124143 6.38319228 0 3.6446749-2.479468 6.3826784-6.124143 6.3826784-3.663178 0-6.123629-2.7380035-6.123629-6.3826784M279.439907 20.9953007l-4.680357-5.550535-1.240248 1.4062658v4.1442692h-1.535276V8.65501049h1.535276v6.38267831l5.458532-6.38267831h1.923849l-5.143458 5.86458041 5.587542 6.4757098z"/></g></svg>